<?xml version="1.0" encoding="UTF-8"?>
<svg width="100px" height="100px" viewBox="0 0 100 100" version="1.1" xmlns="http://www.w3.org/2000/svg" xmlns:xlink="http://www.w3.org/1999/xlink">
    <title>Artboard</title>
    <g id="Artboard" stroke="none" stroke-width="1" fill="none" fill-rule="evenodd">
        <path d="M38.8695652,8 L65.3913043,8 L65.3913043,8 L92,35.1304348 L92,82 C92,87.5228475 87.5228475,92 82,92 L38.8695652,92 C33.3467177,92 28.8695652,87.5228475 28.8695652,82 L28.8695652,18 C28.8695652,12.4771525 33.3467177,8 38.8695652,8 Z" id="Rectangle" fill="#005E7A"></path>
        <path d="M56.6374741,43.6464333 L69.0247548,56.0328419 C69.3465381,56.2006697 69.6485655,56.4196929 69.9187841,56.6899115 C70.6621123,57.4332398 71.0180387,58.4172687 70.9865631,59.3911053 C71.0180387,60.36534 70.6621123,61.3493689 69.9187841,62.0926971 C69.6488449,62.3626364 69.3471627,62.581486 69.0257531,62.749246 L56.6374741,75.1361754 C55.2112115,76.562438 52.8987829,76.562438 51.4725202,75.1361754 C50.0462576,73.7099128 50.0462576,71.3974842 51.4725202,69.9712215 L58.661,62.7817363 L11.6521739,62.7826087 C9.63513396,62.7826087 8,61.1474747 8,59.1304348 C8,57.1133948 9.63513396,55.4782609 11.6521739,55.4782609 L58.139,55.4777363 L51.4725202,48.8113872 C50.0462576,47.3851245 50.0462576,45.0726959 51.4725202,43.6464333 C52.8987829,42.2201707 55.2112115,42.2201707 56.6374741,43.6464333 Z" id="Combined-Shape" fill="#15D3BB"></path>
        <path d="M65.3913043,8 L92,35.1304348 L71.3913043,35.1304348 C68.0775958,35.1304348 65.3913043,32.4441433 65.3913043,29.1304348 L65.3913043,8 L65.3913043,8 Z" id="Rectangle" fill="#A34C87"></path>
    </g>
</svg>